<?xml version="1.0" encoding="utf-8"?>
<!-- Generator: Adobe Illustrator 17.0.0, SVG Export Plug-In . SVG Version: 6.00 Build 0)  -->
<!DOCTYPE svg PUBLIC "-//W3C//DTD SVG 1.1//EN" "http://www.w3.org/Graphics/SVG/1.1/DTD/svg11.dtd">
<svg version="1.1" id="Camada_1" xmlns="http://www.w3.org/2000/svg" xmlns:xlink="http://www.w3.org/1999/xlink" x="0px" y="0px"
	 width="1080px" height="1920px" viewBox="0 0 1080 1920" enable-background="new 0 0 1080 1920" xml:space="preserve">
<g>
	<path fill="none" d="M-80.922-257.848c413.948,0,827.896,0,1241.845,0c0,811.898,0,1623.797,0,2435.695
		c-413.948,0-827.896,0-1241.845,0C-80.922,1365.949-80.922,554.051-80.922-257.848z M186.564,805.152
		c-1.463,3.203-2.398,4.931-3.064,6.758c-4.618,12.665-9.622,25.213-13.638,38.068c-4.102,13.132-10.744,24.487-19.646,34.91
		c-10.271,12.026-19.405,25.037-29.886,36.864c-5.855,6.607-7.364,12.936-4.064,20.77c1.917,4.551,0.452,8.066-2.584,11.771
		c-12.033,14.686-23.715,29.661-35.7,44.387c-2.355,2.894-2.155,4.618,0.674,6.905c6.606,5.339,13.081,10.846,19.455,16.461
		c3.197,2.816,6.502,3.257,10.073,1.258c20.942-11.723,44.104-19.372,63.224-34.377c2.103,7.066,0.085,13.273-4.055,19.14
		c-7.297,10.339-14.47,20.767-21.659,31.182c-0.776,1.124-1.316,2.412-1.965,3.624c1.893,0.182,3.046-0.304,3.847-1.132
		c10.663-11.008,21.385-21.963,31.794-33.207c1.733-1.872,2.795-5.024,2.892-7.632c0.37-9.985,0.243-19.989,0.231-29.985
		c-0.001-1.014-0.475-2.028-0.891-3.681c-2.18,1.788-3.835,3.121-5.464,4.486c-9.139,7.658-17.051,16.774-28.51,21.566
		c-10.894,4.555-21.402,10.036-32.075,15.118c-12.784,6.087-9.421,5.835-18.056-3.245c-7.077-7.442-7.071-7.507-0.507-15.543
		c7.766-9.508,15.597-18.962,23.733-28.844c2.9,4.983,5.492,9.438,8.085,13.894c0.553-0.164,1.106-0.328,1.659-0.492
		c0-2.049,0.2-4.122-0.037-6.144c-0.755-6.431-1.309-12.918-2.615-19.244c-1.848-8.946-1.156-16.502,5.763-23.721
		c8.034-8.382,14.297-18.438,22.074-27.097c12.006-13.366,20.78-28.349,25.949-45.542c1.363-4.534,3.439-8.854,5.686-14.53
		c3.797,8.998,7.265,16.692,10.28,24.56c1.794,4.681,4.866,6.503,9.705,7.118c11.862,1.508,24.184,1.957,35.352,5.712
		c14.458,4.86,27.975,12.519,41.896,18.972c-0.167,0.351-0.334,0.702-0.501,1.054c-18.012-2.996-36.024-5.991-54.036-8.987
		c-0.257,0.666-0.515,1.331-0.772,1.997c2.277,1.373,4.484,2.88,6.841,4.099c19.665,10.179,39.39,20.243,59,30.527
		c2.378,1.247,5.098,3.197,6.091,5.499c4.647,10.773,8.745,21.782,13.452,33.757c-12.772-12.372-24.663-23.891-36.554-35.41
		c-0.487,0.388-0.975,0.776-1.462,1.164c0.583,1.857,1.08,3.746,1.762,5.566c7.125,19.015,13.868,38.187,21.567,56.967
		c5.475,13.354,4.164,27.17,5.762,42.308c-4.63-5.169-8.183-9.116-11.714-13.083c-3.544-3.982-7.008-8.037-10.612-11.964
		c-3.418-3.724-6.31-8.055-10.551-10.882c-0.496,0.379-0.991,0.758-1.487,1.136c14.836,29.904,29.671,59.808,44.507,89.712
		c0.607-0.117,1.214-0.234,1.821-0.351c0.279-2.007,0.794-4.013,0.801-6.021c0.061-19.661-0.62-39.352,0.252-58.974
		c0.659-14.836-2.142-28.316-9.575-41.043c-2.159-3.696-3.744-7.727-5.593-11.605c0.325-0.194,0.65-0.388,0.975-0.583
		c12.148,12.129,24.296,24.259,36.444,36.388c0.484-0.341,0.968-0.683,1.452-1.024c-0.435-1.672-0.703-3.409-1.328-5.006
		c-9.89-25.267-19.879-50.495-29.698-75.788c-1.623-4.181-4.215-6.926-8.293-8.708c-7.367-3.219-14.615-6.711-23.235-10.701
		c15.258,2.469,29.033,4.697,42.807,6.926c0.24-0.566,0.48-1.131,0.72-1.697c-1.73-1.312-3.353-2.806-5.208-3.908
		c-20.045-11.906-40.019-23.94-60.273-35.481c-5.233-2.982-11.245-4.902-17.135-6.35c-8.698-2.138-17.575-3.629-26.44-4.97
		c-4.19-0.633-6.414-2.649-7.929-6.446c-5.427-13.605-11.06-27.129-16.649-40.669C188.992,809.922,188.054,808.22,186.564,805.152z
		 M721.489,910.701c0,11.817,0.149,23.636-0.082,35.449c-0.079,4.041,0.993,5.58,5.259,5.429c8.644-0.305,17.307-0.01,25.96-0.127
		c13.573-0.184,23.47-6.481,29.655-18.49c4.731-9.185,5.541-19.002,4.104-29.094c-1.976-13.873-11.377-30.511-29.748-32.348
		c-10.053-1.005-20.241-0.596-30.358-1.051c-3.684-0.166-4.927,1.03-4.862,4.784C721.622,887.065,721.492,898.884,721.489,910.701z
		 M369.532,910.941c0,9.494,0,18.988,0,28.482c0,12.482-0.002,12.356,12.446,12.141c3.527-0.061,4.627-1.274,4.563-4.679
		c-0.162-8.658,0.04-17.323-0.091-25.982c-0.048-3.179,1.025-4.55,4.324-4.451c5.492,0.165,10.995,0.162,16.487,0
		c3.258-0.096,4.444,1.188,4.365,4.41c-0.154,6.326-0.042,12.657-0.042,18.987c0.001,11.716,0.005,11.487,11.585,11.749
		c4.904,0.111,6.28-1.591,6.236-6.297c-0.19-20.652,0.014-41.307-0.111-61.959c-0.092-15.24,2.06-12.437-12.981-12.875
		c-3.895-0.113-4.845,1.594-4.766,5.065c0.151,6.659-0.099,13.328,0.091,19.985c0.101,3.53-0.858,5.244-4.746,5.062
		c-5.318-0.249-10.66-0.173-15.986-0.021c-3.165,0.09-4.585-1-4.454-4.317c0.177-4.49,0.041-8.993,0.041-13.49
		c0-12.553,0.001-12.384-12.383-12.323c-3.954,0.02-4.685,1.558-4.638,5.036C369.633,887.288,369.534,899.115,369.532,910.941z
		 M625.675,926.745c2.211-0.097,3.978-0.237,5.747-0.241c10.662-0.021,21.324-0.01,31.987-0.01c10.561,0,10.536,0.003,9.101-10.373
		c-3.77-27.263-33.47-32.533-49.844-21.858c-15.082,9.833-18.297,31.908-7.855,46.463c10.99,15.318,38.216,14.835,48.6,5.048
		c1.332-1.255,2.639-2.543,3.869-3.897c1.809-1.992,1.393-3.449-1.064-4.604c-5.469-2.569-10.131-5.422-16.921-1.304
		C641.917,940.443,628.546,938.312,625.675,926.745z M811.731,926.494c2.271,0,4.061,0,5.851,0c10.662,0,21.324,0,31.987,0
		c10.367,0,10.396-0.005,8.893-10.554c-3.875-27.199-33.684-32.358-49.968-21.571c-15.005,9.94-18.108,32.045-7.598,46.506
		c11.037,15.186,38.358,14.675,48.626,4.775c1.317-1.27,3.011-2.41,3.704-3.976c0.48-1.084,0.002-3.625-0.84-4.095
		c-5.425-3.024-10.305-5.753-17.289-1.549C827.651,940.513,814.175,938.142,811.731,926.494z M528.671,893.227
		c-2.188-0.956-4.119-2.196-6.213-2.607c-2.243-0.44-4.663,0.11-6.964-0.145c-4.095-0.453-5.065,1.433-5.025,5.196
		c0.156,14.808,0.062,29.618,0.061,44.428c-0.001,11.611,0,11.469,11.701,11.468c3.843,0,5.354-1.137,5.262-5.103
		c-0.197-8.481-0.118-16.973,0.036-25.456c0.044-2.451,0.421-4.992,1.181-7.317c1.995-6.107,6.238-8.911,11.957-8.298
		c4.702,0.504,7.429,3.8,7.734,10.581c0.352,7.806,0.043,15.639,0.187,23.457c0.26,14.118-2.507,11.794,12.626,12.08
		c2.944,0.056,4.238-1.025,4.218-4.038c-0.081-12.479,0.278-24.971-0.162-37.435c-0.5-14.158-10.487-21.991-22.303-20.418
		C538.006,890.282,533.194,892.053,528.671,893.227z M497.937,911.007c-0.147-0.009-0.295-0.018-0.442-0.027
		c0-3.332,0-6.665,0-9.997c0-10.524-0.006-10.297-10.558-10.564c-4.796-0.121-6.447,1.392-6.327,6.212
		c0.247,9.99,0.13,19.995-0.099,29.988c-0.174,7.592-5.545,11.558-12.838,9.855c-4.294-1.003-7.032-5.364-7.15-11.92
		c-0.131-7.329,0.094-14.665-0.065-21.993c-0.309-14.231,2.834-11.716-12.554-12.072c-3.317-0.077-4.373,1.337-4.34,4.451
		c0.106,9.996-0.462,20.033,0.284,29.976c0.436,5.807,1.9,11.991,4.635,17.072c5.153,9.576,14.575,10.921,24.626,10.587
		c12.246-0.407,21.517-7.624,23.29-19.705C497.456,925.66,497.46,918.299,497.937,911.007z M304.265,1082.844
		c0.852-0.705,1.704-1.409,2.556-2.114c-0.667-1.53-1.148-3.178-2.03-4.573c-14.227-22.5-28.552-44.938-42.723-67.473
		c-2.286-3.635-5.056-5.241-9.403-5.133c-18.618,0.461-37.247,0.516-55.856,1.172c-3.156,0.111-6.98,1.684-9.224,3.88
		c-12.009,11.756-23.625,23.914-35.336,35.973c-0.798,0.822-1.263,1.966-1.883,2.961c0.279,0.32,0.558,0.64,0.837,0.96
		c1.687-0.828,3.463-1.513,5.046-2.506c11.84-7.425,23.535-15.088,35.526-22.258c3.109-1.859,7.053-2.881,10.702-3.173
		c11.913-0.951,23.894-1.08,35.797-2.122c9.119-0.798,15.937,1.288,21.971,9.07c13.353,17.216,27.772,33.604,41.669,50.402
		C303.039,1079.271,303.497,1081.186,304.265,1082.844z M863.328,890.572c0.968,2.758,1.56,4.782,2.374,6.713
		c6.922,16.409,13.976,32.763,20.763,49.227c1.462,3.545,3.225,5.18,7.299,5.123c4.094-0.057,6.67-0.807,8.395-5.04
		c6.783-16.646,13.96-33.131,20.955-49.691c0.752-1.781,1.269-3.662,1.911-5.544c-13.24-3.122-16.245-1.692-21.01,9.62
		c-0.711,1.687-1.4,3.383-2.121,5.066c-2.378,5.555-4.766,11.107-7.603,17.714c-4.468-10.523-8.337-19.87-12.455-29.107
		c-0.714-1.601-2.373-3.742-3.784-3.895C873.481,890.26,868.822,890.572,863.328,890.572z M579.52,927.898c0,4.325,0,8.649,0,12.974
		c0,10.673,0.01,10.384,10.464,10.739c5.268,0.179,6.502-1.836,6.399-6.634c-0.249-11.638,0.034-23.287-0.142-34.928
		c-0.059-3.88,0.828-6.125,5.219-5.585c2.896,0.356,3.795-1.402,3.799-3.939c0.003-1.663-0.046-3.33,0.044-4.989
		c0.185-3.413-0.895-5.497-4.796-5.031c-3.37,0.402-4.414-1.428-4.219-4.494c0.116-1.822,0.042-3.658,0.012-5.488
		c-0.229-14.085,1.972-11.784-12.797-11.991c-0.166-0.002-0.404-0.062-0.488,0.023c-1.169,1.186-3.188,2.311-3.311,3.61
		c-0.422,4.452-0.293,8.971-0.147,13.457c0.103,3.15-0.537,5.286-4.312,4.918c-2.936-0.286-3.737,1.443-3.669,3.995
		c0.053,1.995,0.057,3.993,0.001,5.987c-0.073,2.587,0.808,4.237,3.712,3.954c3.817-0.373,4.333,1.855,4.267,4.959
		C579.427,915.587,579.519,921.744,579.52,927.898z M696.284,893.395c-2.716-1.182-4.613-2.173-6.623-2.814
		c-1.057-0.337-2.331,0.085-3.47-0.086c-5-0.75-6.71,1.252-6.614,6.336c0.274,14.632,0.061,29.272,0.105,43.909
		c0.038,12.799-0.915,10.33,11.044,10.839c4.617,0.197,5.882-1.301,5.862-5.855c-0.046-10.62,0.394-21.249,0.909-31.86
		c0.301-6.198,3.159-9.891,7.346-9.313c3.747,0.517,5.09-1.018,5.897-4.147c0.496-1.924,1.159-3.824,1.938-5.654
		c1.546-3.632-0.227-4.82-3.504-5.204C703.716,888.906,698.97,890.227,696.284,893.395z M143.791,885.092
		c9.278-10.043,6.175-23.401,9.773-35.564c1.86,5.208,3.483,9.754,5.303,14.85c4.22-5.064,7.483-13.29,5.94-16.351
		c-4.846-9.611-10.148-18.992-15.308-28.443c-0.089-0.162-0.615-0.086-1.976-0.234C145.566,841.214,143.705,863.033,143.791,885.092
		z"/>
	<path fill="#8C1C6C" d="M182.022,810.485c1.49,3.068,2.427,4.77,3.164,6.554c5.59,13.54,11.222,27.064,16.649,40.669
		c1.515,3.797,3.739,5.813,7.929,6.446c8.865,1.341,17.742,2.831,26.44,4.97c5.89,1.448,11.902,3.369,17.135,6.35
		c20.254,11.541,40.228,23.575,60.273,35.481c1.855,1.102,3.478,2.596,5.208,3.908c-0.24,0.566-0.48,1.131-0.72,1.697
		c-13.774-2.229-27.549-4.457-42.807-6.926c8.619,3.99,15.867,7.482,23.235,10.701c4.078,1.782,6.67,4.527,8.293,8.708
		c9.819,25.294,19.808,50.522,29.698,75.788c0.625,1.597,0.894,3.334,1.328,5.006c-0.484,0.341-0.968,0.683-1.452,1.024
		c-12.148-12.129-24.296-24.259-36.444-36.388c-0.325,0.194-0.65,0.388-0.975,0.583c1.848,3.878,3.434,7.909,5.593,11.605
		c7.433,12.726,10.235,26.207,9.575,41.043c-0.872,19.623-0.191,39.313-0.252,58.974c-0.006,2.008-0.522,4.014-0.801,6.021
		c-0.607,0.117-1.214,0.234-1.821,0.351c-14.836-29.904-29.671-59.808-44.507-89.712c0.496-0.379,0.991-0.758,1.487-1.136
		c4.241,2.828,7.133,7.158,10.551,10.882c3.604,3.927,7.068,7.981,10.612,11.964c3.53,3.967,7.084,7.914,11.714,13.084
		c-1.599-15.138-0.288-28.954-5.762-42.308c-7.699-18.78-14.442-37.953-21.567-56.967c-0.682-1.82-1.179-3.709-1.762-5.566
		c0.487-0.388,0.975-0.776,1.462-1.164c11.891,11.519,23.782,23.038,36.554,35.41c-4.707-11.975-8.805-22.984-13.452-33.757
		c-0.993-2.301-3.713-4.252-6.091-5.499c-19.61-10.284-39.335-20.348-59-30.527c-2.356-1.22-4.564-2.726-6.841-4.099
		c0.257-0.666,0.515-1.331,0.772-1.997c18.012,2.996,36.024,5.991,54.036,8.987c0.167-0.351,0.334-0.702,0.501-1.054
		c-13.922-6.454-27.439-14.112-41.896-18.972c-11.169-3.755-23.491-4.205-35.352-5.712c-4.84-0.615-7.912-2.437-9.705-7.118
		c-3.015-7.868-6.483-15.562-10.28-24.56c-2.247,5.676-4.323,9.996-5.686,14.53c-5.17,17.193-13.943,32.176-25.949,45.542
		c-7.778,8.659-14.04,18.715-22.075,27.097c-6.92,7.22-7.611,14.775-5.763,23.721c1.307,6.326,1.86,12.813,2.615,19.244
		c0.237,2.021,0.037,4.094,0.037,6.144c-0.553,0.164-1.106,0.328-1.659,0.492c-2.593-4.456-5.186-8.911-8.085-13.893
		c-8.136,9.882-15.967,19.336-23.733,28.844c-6.564,8.037-6.57,8.101,0.507,15.543c8.635,9.081,5.272,9.332,18.056,3.245
		c10.674-5.082,21.181-10.563,32.075-15.118c11.459-4.792,19.372-13.908,28.51-21.566c1.629-1.365,3.284-2.698,5.464-4.486
		c0.415,1.653,0.889,2.667,0.891,3.681c0.012,9.997,0.14,20.001-0.231,29.985c-0.097,2.608-1.159,5.761-2.892,7.632
		c-10.41,11.244-21.132,22.199-31.794,33.207c-0.801,0.827-1.954,1.314-3.847,1.132c0.649-1.212,1.189-2.499,1.965-3.624
		c7.189-10.415,14.362-20.843,21.659-31.182c4.141-5.867,6.158-12.073,4.055-19.14c-19.12,15.005-42.282,22.655-63.224,34.377
		c-3.571,1.999-6.876,1.557-10.073-1.259c-6.374-5.614-12.849-11.122-19.455-16.461c-2.829-2.287-3.029-4.011-0.674-6.905
		c11.985-14.726,23.666-29.701,35.7-44.387c3.036-3.705,4.5-7.22,2.584-11.771c-3.299-7.833-1.79-14.163,4.064-20.77
		c10.481-11.827,19.615-24.838,29.886-36.864c8.902-10.423,15.544-21.777,19.646-34.91c4.016-12.855,9.02-25.403,13.638-38.068
		C179.625,815.416,180.559,813.688,182.022,810.485z"/>
	<path fill="#8C1C6C" d="M722.413,911.548c0.001-11.817,0.131-23.636-0.075-35.449c-0.065-3.754,1.178-4.95,4.862-4.784
		c10.117,0.455,20.305,0.046,30.358,1.051c18.371,1.837,27.773,18.475,29.748,32.348c1.437,10.092,0.627,19.91-4.104,29.094
		c-6.185,12.008-16.081,18.306-29.655,18.49c-8.653,0.117-17.316-0.178-25.96,0.127c-4.266,0.15-5.338-1.388-5.259-5.429
		C722.561,935.185,722.412,923.365,722.413,911.548z M739.329,911.86c0,4.492,0,8.983,0,13.474c0,10.591,0,10.591,10.522,10.191
		c11.963-0.454,17.966-5.542,20.266-17.174c2.887-14.602-4.277-27.001-17.31-29.658c-3.07-0.626-6.328-0.333-9.399-0.956
		c-3.362-0.681-4.13,0.736-4.098,3.662C739.386,898.218,739.335,905.039,739.329,911.86z"/>
	<path fill="#8C1C6C" d="M370.455,911.789c0.001-11.826,0.1-23.653-0.06-35.477c-0.047-3.478,0.684-5.017,4.638-5.036
		c12.383-0.061,12.382-0.231,12.383,12.323c0,4.497,0.136,9-0.041,13.49c-0.131,3.317,1.289,4.407,4.454,4.317
		c5.326-0.152,10.667-0.228,15.986,0.021c3.887,0.182,4.846-1.532,4.746-5.062c-0.19-6.657,0.06-13.326-0.091-19.985
		c-0.079-3.471,0.871-5.179,4.766-5.065c15.042,0.438,12.889-2.365,12.981,12.875c0.125,20.653-0.08,41.308,0.111,61.959
		c0.043,4.706-1.332,6.408-6.236,6.297c-11.579-0.261-11.584-0.032-11.585-11.749c0-6.329-0.112-12.661,0.042-18.987
		c0.079-3.222-1.107-4.505-4.365-4.41c-5.492,0.161-10.995,0.164-16.487,0c-3.299-0.099-4.372,1.272-4.324,4.451
		c0.13,8.659-0.072,17.323,0.091,25.982c0.064,3.405-1.036,4.618-4.563,4.679c-12.449,0.215-12.446,0.34-12.446-12.141
		C370.454,930.777,370.454,921.283,370.455,911.789z"/>
	<path fill="#8C1C6C" d="M626.598,927.592c2.871,11.567,16.242,13.698,23.618,9.225c6.79-4.117,11.451-1.265,16.921,1.304
		c2.457,1.154,2.873,2.612,1.064,4.604c-1.23,1.354-2.537,2.642-3.869,3.897c-10.384,9.787-37.61,10.27-48.6-5.048
		c-10.442-14.555-7.227-36.63,7.855-46.463c16.374-10.675,46.074-5.405,49.844,21.858c1.435,10.376,1.461,10.373-9.101,10.373
		c-10.662,0-21.324-0.011-31.987,0.01C630.576,927.355,628.808,927.496,626.598,927.592z M627.598,913.884c9.776,0,19.018,0,29.02,0
		c-2.944-5.408-6.671-8.231-12.086-8.644C637.643,904.716,631.594,906.048,627.598,913.884z"/>
	<path fill="#8C1C6C" d="M812.653,927.341c2.444,11.648,15.92,14.019,23.365,9.537c6.983-4.204,11.863-1.475,17.289,1.549
		c0.842,0.469,1.32,3.01,0.84,4.095c-0.693,1.566-2.387,2.706-3.704,3.976c-10.268,9.9-37.589,10.41-48.626-4.775
		c-10.51-14.461-7.407-36.566,7.598-46.506c16.284-10.787,46.093-5.628,49.968,21.571c1.503,10.549,1.474,10.554-8.893,10.554
		c-10.662,0-21.324,0-31.986,0C816.714,927.341,814.924,927.341,812.653,927.341z M841.974,914.062
		c-2.488-6.539-6.944-9.075-14.835-8.875c-6.896,0.175-10.973,2.896-12.947,8.875C823.351,914.062,832.414,914.062,841.974,914.062z
		"/>
	<path fill="#8C1C6C" d="M529.593,894.075c4.523-1.174,9.335-2.945,14.295-3.606c11.816-1.573,21.803,6.259,22.303,20.418
		c0.44,12.464,0.081,24.956,0.162,37.435c0.02,3.013-1.274,4.094-4.218,4.038c-15.133-0.287-12.365,2.037-12.626-12.08
		c-0.144-7.818,0.165-15.651-0.187-23.457c-0.306-6.782-3.032-10.077-7.734-10.581c-5.718-0.613-9.962,2.191-11.957,8.298
		c-0.76,2.325-1.136,4.865-1.181,7.317c-0.154,8.484-0.233,16.975-0.036,25.456c0.092,3.966-1.419,5.103-5.262,5.103
		c-11.701,0.001-11.701,0.143-11.701-11.468c0.001-14.81,0.095-29.62-0.061-44.428c-0.04-3.763,0.931-5.65,5.025-5.196
		c2.301,0.255,4.721-0.295,6.964,0.145C525.474,891.879,527.405,893.119,529.593,894.075z"/>
	<path fill="#8C1C6C" d="M498.859,911.854c-0.477,7.292-0.481,14.654-1.539,21.861c-1.773,12.081-11.044,19.298-23.29,19.705
		c-10.051,0.334-19.472-1.011-24.626-10.587c-2.735-5.081-4.199-11.266-4.635-17.072c-0.746-9.942-0.178-19.98-0.284-29.976
		c-0.033-3.115,1.023-4.528,4.34-4.451c15.388,0.356,12.245-2.159,12.554,12.072c0.159,7.328-0.066,14.664,0.065,21.993
		c0.117,6.557,2.856,10.918,7.15,11.92c7.293,1.703,12.664-2.263,12.838-9.855c0.23-9.993,0.346-19.998,0.099-29.988
		c-0.119-4.82,1.531-6.333,6.327-6.212c10.552,0.267,10.557,0.04,10.558,10.564c0,3.333,0,6.665,0,9.998
		C498.565,911.836,498.712,911.845,498.859,911.854z"/>
	<path fill="#8C1C6C" d="M305.187,1083.691c-0.768-1.658-1.225-3.573-2.351-4.934c-13.897-16.798-28.316-33.186-41.669-50.402
		c-6.035-7.781-12.853-9.868-21.971-9.07c-11.903,1.042-23.884,1.171-35.797,2.122c-3.649,0.292-7.593,1.314-10.702,3.173
		c-11.991,7.17-23.687,14.832-35.526,22.257c-1.583,0.993-3.359,1.678-5.046,2.506c-0.279-0.32-0.558-0.64-0.837-0.96
		c0.62-0.994,1.085-2.139,1.883-2.961c11.711-12.058,23.327-24.216,35.336-35.973c2.244-2.196,6.068-3.769,9.224-3.88
		c18.609-0.656,37.239-0.711,55.856-1.172c4.347-0.108,7.117,1.498,9.403,5.134c14.171,22.535,28.496,44.973,42.723,67.473
		c0.882,1.395,1.363,3.043,2.03,4.573C306.891,1082.282,306.039,1082.987,305.187,1083.691z"/>
	<path fill="#8C1C6C" d="M864.25,891.419c5.495,0,10.153-0.312,14.724,0.186c1.411,0.154,3.07,2.294,3.784,3.895
		c4.118,9.236,7.987,18.584,12.455,29.107c2.837-6.607,5.225-12.159,7.603-17.714c0.72-1.683,1.41-3.379,2.121-5.066
		c4.765-11.312,7.771-12.742,21.01-9.62c-0.642,1.882-1.159,3.763-1.911,5.544c-6.995,16.56-14.172,33.045-20.955,49.691
		c-1.725,4.234-4.301,4.983-8.395,5.04c-4.074,0.057-5.837-1.578-7.299-5.123c-6.787-16.464-13.841-32.818-20.763-49.227
		C865.809,896.202,865.217,894.177,864.25,891.419z"/>
	<path fill="#8C1C6C" d="M580.442,928.746c-0.001-6.154-0.093-12.311,0.038-18.462c0.066-3.104-0.45-5.331-4.267-4.959
		c-2.905,0.284-3.786-1.367-3.712-3.954c0.056-1.994,0.052-3.992-0.001-5.987c-0.067-2.552,0.733-4.281,3.669-3.995
		c3.775,0.368,4.415-1.768,4.312-4.918c-0.147-4.486-0.275-9.005,0.147-13.457c0.123-1.299,2.142-2.424,3.311-3.61
		c0.084-0.085,0.322-0.025,0.488-0.023c14.768,0.207,12.568-2.094,12.797,11.991c0.03,1.829,0.104,3.665-0.012,5.488
		c-0.195,3.066,0.849,4.896,4.219,4.494c3.901-0.466,4.981,1.618,4.796,5.031c-0.09,1.659-0.042,3.326-0.044,4.989
		c-0.004,2.537-0.903,4.295-3.799,3.939c-4.391-0.54-5.277,1.706-5.219,5.585c0.176,11.641-0.108,23.29,0.142,34.928
		c0.103,4.798-1.131,6.813-6.399,6.634c-10.454-0.355-10.464-0.066-10.464-10.739C580.443,937.395,580.443,933.07,580.442,928.746z"
		/>
	<path fill="#8C1C6C" d="M697.206,894.242c2.687-3.168,7.432-4.489,12.89-3.849c3.278,0.384,5.05,1.572,3.504,5.204
		c-0.779,1.83-1.442,3.729-1.938,5.654c-0.806,3.129-2.15,4.664-5.897,4.147c-4.187-0.578-7.045,3.115-7.346,9.313
		c-0.516,10.612-0.955,21.241-0.909,31.861c0.02,4.554-1.246,6.051-5.862,5.855c-11.959-0.509-11.006,1.96-11.044-10.839
		c-0.044-14.637,0.17-29.277-0.105-43.909c-0.095-5.084,1.614-7.087,6.614-6.336c1.139,0.171,2.413-0.251,3.47,0.086
		C692.593,892.069,694.49,893.061,697.206,894.242z"/>
	<path fill="#8C1C6C" d="M144.713,885.939c-0.086-22.059,1.775-43.878,3.731-65.742c1.361,0.148,1.887,0.072,1.976,0.234
		c5.16,9.451,10.462,18.833,15.308,28.443c1.543,3.061-1.72,11.287-5.94,16.351c-1.82-5.096-3.443-9.642-5.303-14.85
		C150.888,862.538,153.991,875.896,144.713,885.939z"/>
	<path fill="#FFFFFF" d="M739.332,911.86c0.003-6.82,0.054-13.641-0.021-20.461c-0.032-2.926,0.736-4.343,4.098-3.662
		c3.071,0.622,6.329,0.33,9.399,0.956c13.032,2.657,20.196,15.056,17.31,29.658c-2.3,11.632-8.304,16.72-20.266,17.174
		c-10.522,0.4-10.522,0.4-10.522-10.191C739.329,920.843,739.329,916.351,739.332,911.86z"/>
	<path fill="#FFFFFF" d="M627.598,913.884c3.996-7.837,10.044-9.169,16.934-8.644c5.415,0.413,9.141,3.236,12.086,8.644
		C646.617,913.884,637.374,913.884,627.598,913.884z"/>
	<path fill="#FFFFFF" d="M841.974,914.062c-9.56,0-18.623,0-27.782,0c1.974-5.979,6.051-8.7,12.947-8.875
		C835.03,904.988,839.487,907.523,841.974,914.062z"/>
</g>
</svg>
